<svg width="16" height="16" viewBox="0 0 16 16" fill="none" xmlns="http://www.w3.org/2000/svg">
<rect width="16" height="16" fill="#479C6D"/>
<path d="M4.24581 15.8446C6.5907 15.8446 8.49162 13.6408 8.49162 10.9223C8.49162 8.20378 6.5907 6 4.24581 6C1.90091 6 0 8.20378 0 10.9223C0 13.6408 1.90091 15.8446 4.24581 15.8446Z" fill="#ECE8DD"/>
<path d="M11.7541 15.8446C14.099 15.8446 15.9999 13.6408 15.9999 10.9223C15.9999 8.20378 14.099 6 11.7541 6C9.40921 6 7.5083 8.20378 7.5083 10.9223C7.5083 13.6408 9.40921 15.8446 11.7541 15.8446Z" fill="#ECE8DD"/>
<path d="M6.52523 12.8912C7.46319 12.8912 8.22355 12.0097 8.22355 10.9223C8.22355 9.83488 7.46319 8.95337 6.52523 8.95337C5.58727 8.95337 4.8269 9.83488 4.8269 10.9223C4.8269 12.0097 5.58727 12.8912 6.52523 12.8912Z" fill="#172022"/>
<path d="M14.3016 12.8912C15.2396 12.8912 15.9999 12.0097 15.9999 10.9223C15.9999 9.83488 15.2396 8.95337 14.3016 8.95337C13.3636 8.95337 12.6033 9.83488 12.6033 10.9223C12.6033 12.0097 13.3636 12.8912 14.3016 12.8912Z" fill="#172022"/>
</svg>
