<svg width="84" height="48" viewBox="0 0 84 48" fill="none" xmlns="http://www.w3.org/2000/svg">
<rect width="83.9999" height="48" fill="#479C6D"/>
<path d="M45.8313 48C53.4169 48 59.5662 40.8797 59.5662 32.0964C59.5662 23.313 53.4169 16.1927 45.8313 16.1927C38.2457 16.1927 32.0964 23.313 32.0964 32.0964C32.0964 40.8797 38.2457 48 45.8313 48Z" fill="#ECE8DD"/>
<path d="M70.1204 48C77.706 48 83.8554 40.8797 83.8554 32.0964C83.8554 23.313 77.706 16.1927 70.1204 16.1927C62.5348 16.1927 56.3855 23.313 56.3855 32.0964C56.3855 40.8797 62.5348 48 70.1204 48Z" fill="#ECE8DD"/>
<path d="M53.2048 38.4577C56.239 38.4577 58.6988 35.6096 58.6988 32.0963C58.6988 28.583 56.239 25.7349 53.2048 25.7349C50.1706 25.7349 47.7108 28.583 47.7108 32.0963C47.7108 35.6096 50.1706 38.4577 53.2048 38.4577Z" fill="#172022"/>
<path d="M78.3614 38.4577C81.3956 38.4577 83.8554 35.6096 83.8554 32.0963C83.8554 28.583 81.3956 25.7349 78.3614 25.7349C75.3272 25.7349 72.8674 28.583 72.8674 32.0963C72.8674 35.6096 75.3272 38.4577 78.3614 38.4577Z" fill="#172022"/>
</svg>
