<svg width="70" height="40" viewBox="0 0 70 40" fill="none" xmlns="http://www.w3.org/2000/svg">
<rect width="70" height="40" fill="#479C6D"/>
<path d="M38.1928 40C44.5141 40 49.6385 34.0665 49.6385 26.747C49.6385 19.4276 44.5141 13.494 38.1928 13.494C31.8714 13.494 26.747 19.4276 26.747 26.747C26.747 34.0665 31.8714 40 38.1928 40Z" fill="#ECE8DD"/>
<path d="M58.4337 40C64.755 40 69.8795 34.0665 69.8795 26.747C69.8795 19.4276 64.755 13.494 58.4337 13.494C52.1124 13.494 46.9879 19.4276 46.9879 26.747C46.9879 34.0665 52.1124 40 58.4337 40Z" fill="#ECE8DD"/>
<path d="M44.3373 32.0482C46.8659 32.0482 48.9156 29.6748 48.9156 26.747C48.9156 23.8192 46.8659 21.4458 44.3373 21.4458C41.8088 21.4458 39.759 23.8192 39.759 26.747C39.759 29.6748 41.8088 32.0482 44.3373 32.0482Z" fill="#172022"/>
<path d="M65.3012 32.0482C67.8297 32.0482 69.8795 29.6748 69.8795 26.747C69.8795 23.8192 67.8297 21.4458 65.3012 21.4458C62.7726 21.4458 60.7229 23.8192 60.7229 26.747C60.7229 29.6748 62.7726 32.0482 65.3012 32.0482Z" fill="#172022"/>
</svg>
